{"title":"Monsters University 2013 HDTS XviD-Feel-Free","uid":8698877,"size":1166097489,"categoryP":"video","categoryS":"movies","magnet":"?xt=urn:btih:a41c36c7281b894ec058c9418903170fcb5b05c5&amp;dn=Monsters+University+2013+HDTS+XviD-Feel-Free&amp;tr=udp%3A%2F%2Ftracker.openbittorrent.com%3A80&amp;tr=udp%3A%2F%2Fopen.demonii.com%3A1337&amp;tr=udp%3A%2F%2Ftracker.coppersurfer.tk%3A6969&amp;tr=udp%3A%2F%2Fexodus.desync.com%3A6969","seeders":75,"leechers":12,"uploader":"SaM","files":7,"time":1374016803,"description":"Genre: Animation | Adventure | Comedy\nLanguage:English\nIMDb:http://www.imdb.com/title/tt1453405/\nSource:JUSTiCE/DiRTYMARY Thanks\nSample:Never\nEncoder:Tony\n\nFormat : AVI\nFormat/Info : Audio Video Interleave\nFile size : 1.08 GiB\nDuration : 1h 34mn\nOverall bit rate : 1 637 Kbps\n\nVideo\nID : 0\nFormat : MPEG-4 Visual\nFormat profile : Advanced Simple@L5\nFormat settings, BVOP : 1\nFormat settings, QPel : No\nFormat settings, GMC : No warppoints\nFormat settings, Matrix : Default (H.263)\nCodec ID : XVID\nCodec ID/Hint : XviD\nDuration : 1h 34mn\nBit rate : 1 467 Kbps\nWidth : 640 pixels\nHeight : 344 pixels\nDisplay aspect ratio : 1.860\nFrame rate : 25.000 fps\nColor space : YUV\nChroma subsampling : 4:2:0\nBit depth : 8 bits\nScan type : Progressive\nCompression mode : Lossy\nBits/(Pixel*Frame) : 0.267\nStream size : 996 MiB (90%)\nWriting library : XviD 1.2.1 (UTC 2008-12-04)\n\nAudio\nID : 1\nFormat : AC-3\nFormat/Info : Audio Coding 3\nMode extension : CM (complete main)\nCodec ID : 2000\nDuration : 1h 34mn\nBit rate mode : Constant\nBit rate : 160 Kbps\nChannel(s) : 2 channels\nChannel positions : Front: L R\nSampling rate : 48.0 KHz\nBit depth : 16 bits\nCompression mode : Lossy\nStream size : 109 MiB (10%)\nAlignment : Aligned on interleaves\nInterleave, duration : 40 ms (1.00 video frame)\nInterleave, preload duration : 512 ms\n &lt;a href=&quot;\nhttp://lookpic.com/O/i2/1611/iAGWjFhA.png&quot; rel=&quot;nofollow&quot; target=&quot;_NEW&quot;&gt;\nhttp://lookpic.com/O/i2/1611/iAGWjFhA.png&lt;/a&gt; &lt;a href=&quot;\nhttp://lookpic.com/O/i2/1112/TkcjvYzc.png&quot; rel=&quot;nofollow&quot; target=&quot;_NEW&quot;&gt;\nhttp://lookpic.com/O/i2/1112/TkcjvYzc.png&lt;/a&gt; &lt;a href=&quot;\nhttp://lookpic.com/O/i2/1188/0jwViSig.png&quot; rel=&quot;nofollow&quot; target=&quot;_NEW&quot;&gt;\nhttp://lookpic.com/O/i2/1188/0jwViSig.png&lt;/a&gt; &lt;a href=&quot;\nhttp://lookpic.com/O/i2/392/33zqVqQV.png&quot; rel=&quot;nofollow&quot; target=&quot;_NEW&quot;&gt;\nhttp://lookpic.com/O/i2/392/33zqVqQV.png&lt;/a&gt;\n\nGreets:\nCRYS,INSPiRAL,IMAGINE,LKRG,ADTRG,FXG,3Li,FLAWL3SS,CrEwSaDe,TA,iLLUSiON,EMBER,HOPE,GooN,BBnRG,NOGRP,ETRG,BHRG,iLLUMiNATi,MiSTERE.ViSiON,DTRG SAFCuk009,LU,TheFalcon007,MYSTiC,PrisM,Noir,WBZ,LAP,Rx,Kingdom,SAFCuk009+Fabreezy,HDLiTE,TWiZTED,ETRG.ELEKTRI4KA,MAGNAT,CM8\nAnd to all the other p2p grps past and present\n\nMake sure its a real Feel-Free release @\nThanks to all who promotes release Feel-Free !!!","torrent":{"xt":"urn:btih:a41c36c7281b894ec058c9418903170fcb5b05c5","amp;dn":"Monsters+University+2013+HDTS+XviD-Feel-Free","amp;tr":["udp%3A%2F%2Ftracker.openbittorrent.com%3A80","udp%3A%2F%2Fopen.demonii.com%3A1337","udp%3A%2F%2Ftracker.coppersurfer.tk%3A6969","udp%3A%2F%2Fexodus.desync.com%3A6969"],"infoHash":"a41c36c7281b894ec058c9418903170fcb5b05c5","infoHashBuffer":{"type":"Buffer","data":[164,28,54,199,40,27,137,78,192,88,201,65,137,3,23,15,203,91,5,197]},"announce":[],"urlList":[]}}